<?xml version="1.0" encoding="UTF-8"?>
<svg width="148px" height="39px" viewBox="0 0 148 39" version="1.1" xmlns="http://www.w3.org/2000/svg" xmlns:xlink="http://www.w3.org/1999/xlink">
    <title>Edusity-logo Copy 3</title>
    <g id="Page-1" stroke="none" stroke-width="1" fill="none" fill-rule="evenodd">
        <g id="Edusity-logo-Copy-3" transform="translate(0.000000, -6.000000)">
            <g id="edusity-copy" transform="translate(44.895000, 7.320000)" fill-rule="nonzero">
                <path d="M8.22,23.16 C9.74,23.16 11.075,22.885 12.225,22.335 C13.375,21.785 14.3,21 15,19.98 L15,19.98 L11.58,17.82 C11.24,18.28 10.8,18.655 10.26,18.945 C9.72,19.235 9.06,19.38 8.28,19.38 C7.84,19.38 7.415,19.31 7.005,19.17 C6.595,19.03 6.225,18.835 5.895,18.585 C5.565,18.335 5.295,18.04 5.085,17.7 C4.875,17.36 4.75,16.98 4.71,16.56 L4.71,16.56 L15.54,16.56 C15.56,16.38 15.57,16.19 15.57,15.99 L15.57,15.99 L15.57,15.39 C15.57,14.11 15.385,12.97 15.015,11.97 C14.645,10.97 14.13,10.12 13.47,9.42 C12.81,8.72 12.02,8.185 11.1,7.815 C10.18,7.445 9.17,7.26 8.07,7.26 C6.93,7.26 5.87,7.45 4.89,7.83 C3.91,8.21 3.06,8.745 2.34,9.435 C1.62,10.125 1.05,10.965 0.63,11.955 C0.21,12.945 0,14.05 0,15.27 C0,16.53 0.215,17.65 0.645,18.63 C1.075,19.61 1.665,20.435 2.415,21.105 C3.165,21.775 4.04,22.285 5.04,22.635 C6.04,22.985 7.1,23.16 8.22,23.16 Z M11.04,13.5 L4.71,13.5 C4.73,13.12 4.83,12.755 5.01,12.405 C5.19,12.055 5.43,11.75 5.73,11.49 C6.03,11.23 6.38,11.025 6.78,10.875 C7.18,10.725 7.62,10.65 8.1,10.65 C9.08,10.65 9.815,10.93 10.305,11.49 C10.795,12.05 11.04,12.72 11.04,13.5 L11.04,13.5 Z M22.89,23.1 C23.89,23.1 24.835,22.895 25.725,22.485 C26.615,22.075 27.3,21.49 27.78,20.73 L27.78,20.73 L27.84,20.73 L27.84,22.68 L32.37,22.68 L32.37,-7.28306304e-14 L27.45,-7.28306304e-14 L27.45,9.33 L27.39,9.33 C26.97,8.83 26.38,8.37 25.62,7.95 C24.86,7.53 23.93,7.32 22.83,7.32 C21.75,7.32 20.775,7.53 19.905,7.95 C19.035,8.37 18.295,8.94 17.685,9.66 C17.075,10.38 16.605,11.215 16.275,12.165 C15.945,13.115 15.78,14.11 15.78,15.15 C15.78,16.19 15.94,17.19 16.26,18.15 C16.58,19.11 17.045,19.955 17.655,20.685 C18.265,21.415 19.01,22 19.89,22.44 C20.77,22.88 21.77,23.1 22.89,23.1 Z M24.06,19.02 C23.48,19.02 22.97,18.91 22.53,18.69 C22.09,18.47 21.72,18.18 21.42,17.82 C21.12,17.46 20.895,17.045 20.745,16.575 C20.595,16.105 20.52,15.63 20.52,15.15 C20.52,14.67 20.595,14.2 20.745,13.74 C20.895,13.28 21.12,12.875 21.42,12.525 C21.72,12.175 22.09,11.89 22.53,11.67 C22.97,11.45 23.48,11.34 24.06,11.34 C24.62,11.34 25.12,11.45 25.56,11.67 C26,11.89 26.375,12.18 26.685,12.54 C26.995,12.9 27.235,13.31 27.405,13.77 C27.575,14.23 27.66,14.7 27.66,15.18 C27.66,15.66 27.575,16.13 27.405,16.59 C27.235,17.05 26.995,17.46 26.685,17.82 C26.375,18.18 26,18.47 25.56,18.69 C25.12,18.91 24.62,19.02 24.06,19.02 Z M39.45,23.1 C39.97,23.1 40.465,23.03 40.935,22.89 C41.405,22.75 41.835,22.57 42.225,22.35 C42.615,22.13 42.955,21.87 43.245,21.57 C43.535,21.27 43.77,20.95 43.95,20.61 L43.95,20.61 L44.01,20.61 L44.01,22.68 L48.75,22.68 L48.75,7.74 L43.83,7.74 L43.83,15.81 C43.83,16.67 43.605,17.42 43.155,18.06 C42.705,18.7 42.05,19.02 41.19,19.02 C40.73,19.02 40.36,18.935 40.08,18.765 C39.8,18.595 39.575,18.36 39.405,18.06 C39.235,17.76 39.12,17.42 39.06,17.04 C39,16.66 38.97,16.26 38.97,15.84 L38.97,15.84 L38.97,7.74 L34.02,7.74 L34.02,16.98 C34.02,17.74 34.115,18.485 34.305,19.215 C34.495,19.945 34.805,20.595 35.235,21.165 C35.665,21.735 36.225,22.2 36.915,22.56 C37.605,22.92 38.45,23.1 39.45,23.1 Z" id="edu" fill="#7108B9"></path>
                <path d="M55.41,23.16 C56.17,23.16 56.93,23.07 57.69,22.89 C58.45,22.71 59.135,22.42 59.745,22.02 C60.355,21.62 60.85,21.095 61.23,20.445 C61.61,19.795 61.8,19 61.8,18.06 C61.8,17.34 61.66,16.72 61.38,16.2 C61.1,15.68 60.73,15.24 60.27,14.88 C59.81,14.52 59.295,14.23 58.725,14.01 C58.155,13.79 57.59,13.62 57.03,13.5 C56.07,13.28 55.375,13.08 54.945,12.9 C54.515,12.72 54.3,12.42 54.3,12 C54.3,11.56 54.495,11.25 54.885,11.07 C55.275,10.89 55.7,10.8 56.16,10.8 C56.76,10.8 57.33,10.93 57.87,11.19 C58.41,11.45 58.88,11.77 59.28,12.15 L59.28,12.15 L61.98,9.36 C61.24,8.66 60.335,8.135 59.265,7.785 C58.195,7.435 57.1,7.26 55.98,7.26 C55.26,7.26 54.535,7.355 53.805,7.545 C53.075,7.735 52.41,8.03 51.81,8.43 C51.21,8.83 50.72,9.345 50.34,9.975 C49.96,10.605 49.77,11.37 49.77,12.27 C49.77,12.97 49.9,13.57 50.16,14.07 C50.42,14.57 50.755,14.99 51.165,15.33 C51.575,15.67 52.04,15.94 52.56,16.14 C53.08,16.34 53.6,16.5 54.12,16.62 C55.14,16.86 55.89,17.09 56.37,17.31 C56.85,17.53 57.09,17.87 57.09,18.33 C57.09,18.81 56.895,19.145 56.505,19.335 C56.115,19.525 55.72,19.62 55.32,19.62 C54.6,19.62 53.92,19.46 53.28,19.14 C52.64,18.82 52.1,18.42 51.66,17.94 L51.66,17.94 L48.9,20.85 C49.68,21.61 50.655,22.185 51.825,22.575 C52.995,22.965 54.19,23.16 55.41,23.16 Z M65.07,5.67 C65.45,5.67 65.815,5.6 66.165,5.46 C66.515,5.32 66.815,5.13 67.065,4.89 C67.315,4.65 67.515,4.365 67.665,4.035 C67.815,3.705 67.89,3.35 67.89,2.97 C67.89,2.59 67.815,2.235 67.665,1.905 C67.515,1.575 67.315,1.29 67.065,1.05 C66.815,0.81 66.515,0.62 66.165,0.48 C65.815,0.34 65.45,0.27 65.07,0.27 C64.67,0.27 64.3,0.345 63.96,0.495 C63.62,0.645 63.32,0.84 63.06,1.08 C62.8,1.32 62.6,1.605 62.46,1.935 C62.32,2.265 62.25,2.61 62.25,2.97 C62.25,3.71 62.52,4.345 63.06,4.875 C63.6,5.405 64.27,5.67 65.07,5.67 Z M67.53,22.68 L67.53,7.74 L62.61,7.74 L62.61,22.68 L67.53,22.68 Z M75.18,23.04 C75.7,23.04 76.22,22.995 76.74,22.905 C77.26,22.815 77.69,22.71 78.03,22.59 L78.03,22.59 L77.97,18.99 C77.79,19.07 77.565,19.13 77.295,19.17 C77.025,19.21 76.77,19.23 76.53,19.23 C75.83,19.23 75.345,19.055 75.075,18.705 C74.805,18.355 74.67,17.83 74.67,17.13 L74.67,17.13 L74.67,11.43 L78.18,11.43 L78.18,7.74 L74.67,7.74 L74.67,3.81 L69.84,3.81 L69.84,7.74 L67.47,7.74 L67.47,11.43 L69.87,11.43 L69.87,17.73 C69.87,18.53 69.96,19.255 70.14,19.905 C70.32,20.555 70.615,21.115 71.025,21.585 C71.435,22.055 71.98,22.415 72.66,22.665 C73.34,22.915 74.18,23.04 75.18,23.04 Z M80.25,29.88 C81.19,29.88 82.005,29.77 82.695,29.55 C83.385,29.33 83.985,29.005 84.495,28.575 C85.005,28.145 85.445,27.625 85.815,27.015 C86.185,26.405 86.52,25.71 86.82,24.93 L86.82,24.93 L93.51,7.74 L88.29,7.74 L85.32,17.34 L85.23,17.34 L81.9,7.74 L76.44,7.74 L82.68,22.44 L82.2,23.67 C81.96,24.31 81.67,24.805 81.33,25.155 C80.99,25.505 80.44,25.68 79.68,25.68 C79.44,25.68 79.175,25.655 78.885,25.605 C78.595,25.555 78.33,25.49 78.09,25.41 L78.09,25.41 L77.55,29.55 C77.91,29.65 78.335,29.73 78.825,29.79 C79.315,29.85 79.79,29.88 80.25,29.88 Z" id="sity" fill="#AF2DF8"></path>
            </g>
            <g id="Orange-Top-Copy-2" transform="translate(0.000000, 6.000000)">
                <rect id="Rectangle" fill="#878787" x="39" y="13" width="1" height="12"></rect>
                <ellipse id="Oval" fill="#878787" cx="39.5" cy="26" rx="1.5" ry="2"></ellipse>
                <path d="M38.5,30.752243 C38.7500404,29.4936886 39.1865352,28.9566733 39.5,29.0027188 C39.8133634,29.0487493 40.0036838,29.6774612 40.3333333,30.7635217 C40.7729371,32.2118365 40.9951593,34.9573293 41,39 C40.3703704,38.5001359 39.8703704,38.2502039 39.5,38.2502039 C39.1296296,38.2502039 38.6296296,38.5001359 38,39 C38,35.1792965 38.1666667,32.4300441 38.5,30.752243 Z" id="Rectangle" fill="#878787"></path>
                <rect id="Rectangle" fill="#878787" x="39" y="27" width="1" height="3"></rect>
                <path d="M21.6877729,0 L43,11.9836066 L34.3624454,17 C30.3393156,14.5846995 26.2083112,13.3770492 21.9694323,13.3770492 C17.7305534,13.3770492 13.4117761,14.5846995 9.01310044,17 L0,11.9836066 L21.6877729,0 Z" id="Triangle" fill="#7108B9"></path>
                <path d="M9,17.4713777 C12.1347705,15.3152887 16.3720265,14.1623222 21.7117679,14.0124782 C27.0515094,13.8626341 31.1475867,15.0623423 34,17.6116025 L34,26 C31.7860834,25.0058196 29.6839327,24.5087293 27.6935478,24.5087293 C25.7031629,24.5087293 23.7284152,25.0058196 21.7693048,26 C19.7945571,25.0058196 17.7561079,24.5087293 15.6539572,24.5087293 C13.5518065,24.5087293 11.3859542,25.0058196 9.15640038,26 L9,17.4713777 Z" id="Rectangle" fill="#7108B9"></path>
                <polygon id="Triangle" fill="#FFFFFF" transform="translate(23.500000, 14.000000) rotate(90.000000) translate(-23.500000, -14.000000) " points="23.5 8 29 20 18 20"></polygon>
            </g>
            <path d="M142.008,19 L142.008,15.274 L143.37,15.274 L143.37,14.752 L140.052,14.752 L140.052,15.274 L141.414,15.274 L141.414,19 L142.008,19 Z M144.09,19 L144.09,15.448 L144.102,15.448 L145.506,19 L145.884,19 L147.294,15.448 L147.306,15.448 L147.306,19 L147.9,19 L147.9,14.752 L146.976,14.752 L145.722,18.016 L145.71,18.016 L144.438,14.752 L143.514,14.752 L143.514,19 L144.09,19 Z" id="TM" fill="#333333" fill-rule="nonzero"></path>
        </g>
    </g>
</svg>